<svg width="23" height="23" viewBox="0 0 23 23" fill="none" xmlns="http://www.w3.org/2000/svg">
<path fill-rule="evenodd" clip-rule="evenodd" d="M11.25 4.6C13.3156 4.6 14.7089 5.5125 15.5033 6.275L18.6078 3.175C16.7011 1.3625 14.22 0.25 11.25 0.25C6.94778 0.25 3.23223 2.775 1.42334 6.45L4.98001 9.275C5.87223 6.5625 8.34112 4.6 11.25 4.6Z" fill="#EA4335"/>
<path fill-rule="evenodd" clip-rule="evenodd" d="M21.81 11.7531C21.81 10.8281 21.7367 10.1531 21.5778 9.45312H11.25V13.6281H17.3122C17.19 14.6656 16.53 16.2281 15.0633 17.2781L18.5344 20.0281C20.6122 18.0656 21.81 15.1781 21.81 11.7531Z" fill="#4285F4"/>
<path fill-rule="evenodd" clip-rule="evenodd" d="M4.99222 13.7281C4.75188 13.0119 4.62802 12.2603 4.62556 11.5031C4.62556 10.7281 4.76 9.97812 4.98 9.27812L1.42333 6.45312C0.653014 8.02003 0.251229 9.74931 0.25 11.5031C0.25 13.3156 0.677778 15.0281 1.42333 16.5531L4.99222 13.7281Z" fill="#FBBC05"/>
<path fill-rule="evenodd" clip-rule="evenodd" d="M11.2505 22.7516C14.2205 22.7516 16.7138 21.7516 18.5349 20.0266L15.0638 17.2766C14.1349 17.9391 12.8883 18.4016 11.2505 18.4016C8.34159 18.4016 5.8727 16.4391 4.9927 13.7266L1.43604 16.5516C3.24492 20.2266 6.94826 22.7516 11.2505 22.7516Z" fill="#34A853"/>
</svg>
